<svg xmlns="http://www.w3.org/2000/svg" xmlns:xlink="http://www.w3.org/1999/xlink" width="500" zoomAndPan="magnify" viewBox="0 0 375 374.999991" height="500" preserveAspectRatio="xMidYMid meet" version="1.0"><defs><clipPath id="a1c4ccc289"><path d="M 238.453125 67.613281 L 350.953125 67.613281 L 350.953125 180.113281 L 238.453125 180.113281 Z M 238.453125 67.613281 " clip-rule="nonzero"/></clipPath><clipPath id="16b3487c09"><path d="M 255.78125 163.050781 L 273 163.050781 L 273 180.300781 L 255.78125 180.300781 Z M 255.78125 163.050781 " clip-rule="nonzero"/></clipPath></defs><rect x="-37.5" width="450" fill="#ffffff" y="-37.499999" height="449.999989" fill-opacity="1"/><rect x="-37.5" width="450" fill="#ffffff" y="-37.499999" height="449.999989" fill-opacity="1"/><path fill="#000000" d="M 79.898438 195.941406 C 80.679688 195.941406 81.324219 195.878906 81.835938 195.753906 C 82.34375 195.621094 82.75 195.441406 83.054688 195.222656 C 83.367188 194.996094 83.578125 194.730469 83.695312 194.425781 C 83.820312 194.113281 83.882812 193.765625 83.882812 193.378906 C 83.882812 192.578125 83.5 191.910156 82.742188 191.378906 C 81.980469 190.839844 80.671875 190.261719 78.820312 189.644531 C 78.015625 189.363281 77.210938 189.042969 76.398438 188.675781 C 75.59375 188.300781 74.871094 187.839844 74.226562 187.285156 C 73.589844 186.722656 73.070312 186.046875 72.664062 185.253906 C 72.265625 184.464844 72.070312 183.496094 72.070312 182.347656 C 72.070312 181.214844 72.28125 180.191406 72.710938 179.285156 C 73.136719 178.371094 73.742188 177.59375 74.523438 176.957031 C 75.304688 176.3125 76.25 175.816406 77.367188 175.472656 C 78.480469 175.128906 79.734375 174.957031 81.132812 174.957031 C 82.796875 174.957031 84.234375 175.136719 85.445312 175.488281 C 86.652344 175.84375 87.648438 176.234375 88.429688 176.660156 L 86.835938 181.035156 C 86.136719 180.683594 85.367188 180.371094 84.523438 180.097656 C 83.6875 179.816406 82.679688 179.675781 81.492188 179.675781 C 80.15625 179.675781 79.199219 179.863281 78.617188 180.238281 C 78.042969 180.605469 77.757812 181.167969 77.757812 181.925781 C 77.757812 182.375 77.859375 182.753906 78.070312 183.066406 C 78.289062 183.371094 78.589844 183.644531 78.976562 183.894531 C 79.371094 184.144531 79.824219 184.375 80.335938 184.582031 C 80.84375 184.78125 81.40625 184.984375 82.023438 185.191406 C 83.304688 185.671875 84.417969 186.144531 85.367188 186.613281 C 86.3125 187.074219 87.101562 187.609375 87.726562 188.222656 C 88.359375 188.839844 88.828125 189.5625 89.132812 190.394531 C 89.445312 191.230469 89.601562 192.234375 89.601562 193.410156 C 89.601562 195.714844 88.792969 197.5 87.179688 198.769531 C 85.5625 200.042969 83.136719 200.675781 79.898438 200.675781 C 78.804688 200.675781 77.8125 200.605469 76.929688 200.472656 C 76.054688 200.347656 75.277344 200.191406 74.601562 200.003906 C 73.921875 199.808594 73.339844 199.605469 72.851562 199.394531 C 72.371094 199.175781 71.964844 198.972656 71.632812 198.785156 L 73.195312 194.378906 C 73.933594 194.785156 74.839844 195.152344 75.914062 195.472656 C 76.996094 195.785156 78.324219 195.941406 79.898438 195.941406 Z M 79.898438 195.941406 " fill-opacity="1" fill-rule="nonzero"/><path fill="#000000" d="M 92.621094 190.957031 C 92.621094 189.300781 92.875 187.855469 93.386719 186.613281 C 93.894531 185.363281 94.566406 184.324219 95.402344 183.488281 C 96.234375 182.65625 97.1875 182.027344 98.261719 181.597656 C 99.34375 181.171875 100.453125 180.957031 101.589844 180.957031 C 104.246094 180.957031 106.34375 181.769531 107.886719 183.394531 C 109.425781 185.019531 110.199219 187.410156 110.199219 190.566406 C 110.199219 190.878906 110.1875 191.21875 110.167969 191.582031 C 110.144531 191.949219 110.121094 192.277344 110.089844 192.566406 L 98.074219 192.566406 C 98.1875 193.652344 98.691406 194.515625 99.589844 195.160156 C 100.496094 195.796875 101.707031 196.113281 103.230469 196.113281 C 104.199219 196.113281 105.152344 196.027344 106.089844 195.847656 C 107.027344 195.671875 107.792969 195.453125 108.386719 195.191406 L 109.105469 199.503906 C 108.8125 199.640625 108.425781 199.78125 107.949219 199.925781 C 107.480469 200.074219 106.953125 200.195312 106.371094 200.300781 C 105.796875 200.402344 105.175781 200.492188 104.511719 200.566406 C 103.84375 200.636719 103.175781 200.675781 102.511719 200.675781 C 100.832031 200.675781 99.371094 200.425781 98.121094 199.925781 C 96.878906 199.425781 95.847656 198.746094 95.027344 197.878906 C 94.214844 197.015625 93.609375 195.988281 93.214844 194.800781 C 92.816406 193.613281 92.621094 192.332031 92.621094 190.957031 Z M 105.074219 188.925781 C 105.050781 188.480469 104.972656 188.042969 104.839844 187.613281 C 104.714844 187.1875 104.515625 186.808594 104.246094 186.472656 C 103.972656 186.140625 103.628906 185.871094 103.214844 185.660156 C 102.796875 185.441406 102.28125 185.332031 101.667969 185.332031 C 101.074219 185.332031 100.5625 185.4375 100.136719 185.644531 C 99.707031 185.84375 99.347656 186.109375 99.058594 186.441406 C 98.777344 186.777344 98.558594 187.160156 98.402344 187.597656 C 98.253906 188.035156 98.144531 188.480469 98.074219 188.925781 Z M 105.074219 188.925781 " fill-opacity="1" fill-rule="nonzero"/><path fill="#000000" d="M 114.289062 182.097656 C 115.195312 181.839844 116.355469 181.597656 117.773438 181.378906 C 119.199219 181.152344 120.695312 181.035156 122.257812 181.035156 C 123.851562 181.035156 125.171875 181.246094 126.226562 181.660156 C 127.289062 182.078125 128.125 182.667969 128.742188 183.425781 C 129.355469 184.175781 129.792969 185.078125 130.054688 186.128906 C 130.3125 187.171875 130.445312 188.332031 130.445312 189.613281 L 130.445312 200.175781 L 125.148438 200.175781 L 125.148438 190.253906 C 125.148438 188.546875 124.917969 187.339844 124.460938 186.628906 C 124.011719 185.910156 123.171875 185.550781 121.945312 185.550781 C 121.570312 185.550781 121.167969 185.574219 120.742188 185.613281 C 120.3125 185.644531 119.933594 185.6875 119.601562 185.738281 L 119.601562 200.175781 L 114.289062 200.175781 Z M 114.289062 182.097656 " fill-opacity="1" fill-rule="nonzero"/><path fill="#000000" d="M 140.617188 196.363281 C 141.59375 196.363281 142.28125 196.269531 142.679688 196.082031 C 143.085938 195.894531 143.289062 195.53125 143.289062 194.988281 C 143.289062 194.5625 143.027344 194.1875 142.507812 193.863281 C 141.984375 193.542969 141.1875 193.175781 140.117188 192.769531 C 139.292969 192.46875 138.542969 192.152344 137.867188 191.816406 C 137.1875 191.484375 136.609375 191.089844 136.132812 190.628906 C 135.664062 190.160156 135.296875 189.609375 135.039062 188.972656 C 134.777344 188.328125 134.648438 187.558594 134.648438 186.660156 C 134.648438 184.902344 135.296875 183.511719 136.601562 182.488281 C 137.902344 181.46875 139.695312 180.957031 141.976562 180.957031 C 143.109375 180.957031 144.199219 181.0625 145.242188 181.269531 C 146.28125 181.46875 147.117188 181.6875 147.742188 181.925781 L 146.804688 186.050781 C 146.1875 185.84375 145.515625 185.65625 144.789062 185.488281 C 144.070312 185.324219 143.261719 185.238281 142.367188 185.238281 C 140.699219 185.238281 139.867188 185.699219 139.867188 186.613281 C 139.867188 186.832031 139.902344 187.027344 139.976562 187.191406 C 140.046875 187.359375 140.1875 187.519531 140.398438 187.675781 C 140.617188 187.824219 140.90625 187.988281 141.273438 188.175781 C 141.648438 188.355469 142.117188 188.546875 142.679688 188.753906 C 143.84375 189.183594 144.808594 189.605469 145.570312 190.019531 C 146.328125 190.4375 146.929688 190.890625 147.367188 191.378906 C 147.804688 191.859375 148.109375 192.394531 148.289062 192.988281 C 148.464844 193.582031 148.554688 194.269531 148.554688 195.050781 C 148.554688 196.90625 147.859375 198.308594 146.476562 199.253906 C 145.089844 200.199219 143.125 200.675781 140.585938 200.675781 C 138.929688 200.675781 137.546875 200.527344 136.445312 200.238281 C 135.339844 199.957031 134.574219 199.722656 134.148438 199.535156 L 135.039062 195.222656 C 135.933594 195.589844 136.855469 195.871094 137.804688 196.066406 C 138.75 196.265625 139.6875 196.363281 140.617188 196.363281 Z M 140.617188 196.363281 " fill-opacity="1" fill-rule="nonzero"/><path fill="#000000" d="M 170.011719 190.785156 C 170.011719 192.253906 169.796875 193.605469 169.371094 194.832031 C 168.941406 196.050781 168.324219 197.09375 167.511719 197.957031 C 166.707031 198.824219 165.746094 199.496094 164.621094 199.972656 C 163.496094 200.441406 162.230469 200.675781 160.824219 200.675781 C 159.449219 200.675781 158.199219 200.441406 157.074219 199.972656 C 155.949219 199.496094 154.980469 198.824219 154.167969 197.957031 C 153.363281 197.09375 152.734375 196.050781 152.277344 194.832031 C 151.828125 193.605469 151.605469 192.253906 151.605469 190.785156 C 151.605469 189.316406 151.832031 187.980469 152.292969 186.769531 C 152.761719 185.550781 153.402344 184.519531 154.214844 183.675781 C 155.035156 182.824219 156.011719 182.15625 157.136719 181.675781 C 158.269531 181.199219 159.5 180.957031 160.824219 180.957031 C 162.175781 180.957031 163.417969 181.199219 164.542969 181.675781 C 165.667969 182.15625 166.628906 182.824219 167.433594 183.675781 C 168.246094 184.519531 168.875 185.550781 169.324219 186.769531 C 169.78125 187.980469 170.011719 189.316406 170.011719 190.785156 Z M 164.605469 190.785156 C 164.605469 189.152344 164.277344 187.863281 163.621094 186.925781 C 162.964844 185.988281 162.03125 185.519531 160.824219 185.519531 C 159.613281 185.519531 158.675781 185.988281 158.011719 186.925781 C 157.355469 187.863281 157.027344 189.152344 157.027344 190.785156 C 157.027344 192.421875 157.355469 193.71875 158.011719 194.675781 C 158.675781 195.636719 159.613281 196.113281 160.824219 196.113281 C 162.03125 196.113281 162.964844 195.636719 163.621094 194.675781 C 164.277344 193.71875 164.605469 192.421875 164.605469 190.785156 Z M 164.605469 190.785156 " fill-opacity="1" fill-rule="nonzero"/><path fill="#000000" d="M 185.375 186.160156 C 184.90625 186.035156 184.347656 185.910156 183.703125 185.785156 C 183.066406 185.652344 182.378906 185.582031 181.640625 185.582031 C 181.304688 185.582031 180.90625 185.613281 180.4375 185.675781 C 179.976562 185.738281 179.632812 185.808594 179.40625 185.878906 L 179.40625 200.175781 L 174.09375 200.175781 L 174.09375 182.457031 C 175.039062 182.125 176.160156 181.8125 177.453125 181.519531 C 178.753906 181.21875 180.195312 181.066406 181.78125 181.066406 C 182.070312 181.066406 182.414062 181.089844 182.8125 181.128906 C 183.21875 181.160156 183.617188 181.207031 184.015625 181.269531 C 184.421875 181.324219 184.828125 181.390625 185.234375 181.472656 C 185.640625 181.558594 185.984375 181.660156 186.265625 181.785156 Z M 185.375 186.160156 " fill-opacity="1" fill-rule="nonzero"/><path fill="#000000" d="M 196.011719 175.519531 C 196.4375 176.300781 196.925781 177.269531 197.480469 178.425781 C 198.042969 179.574219 198.625 180.816406 199.230469 182.160156 C 199.832031 183.496094 200.433594 184.863281 201.027344 186.269531 C 201.621094 187.667969 202.175781 188.980469 202.699219 190.207031 C 203.21875 188.980469 203.777344 187.667969 204.371094 186.269531 C 204.964844 184.863281 205.5625 183.496094 206.167969 182.160156 C 206.769531 180.816406 207.347656 179.574219 207.902344 178.425781 C 208.464844 177.269531 208.957031 176.300781 209.386719 175.519531 L 214.449219 175.519531 C 214.675781 177.15625 214.890625 178.988281 215.089844 181.019531 C 215.296875 183.050781 215.480469 185.167969 215.636719 187.363281 C 215.792969 189.550781 215.933594 191.75 216.058594 193.957031 C 216.191406 196.15625 216.308594 198.230469 216.402344 200.175781 L 210.996094 200.175781 C 210.921875 197.78125 210.824219 195.171875 210.699219 192.347656 C 210.582031 189.527344 210.40625 186.683594 210.167969 183.816406 C 209.738281 184.808594 209.265625 185.90625 208.746094 187.113281 C 208.222656 188.324219 207.707031 189.535156 207.199219 190.753906 C 206.6875 191.964844 206.191406 193.121094 205.714844 194.222656 C 205.246094 195.316406 204.84375 196.261719 204.511719 197.050781 L 200.636719 197.050781 C 200.300781 196.261719 199.894531 195.316406 199.417969 194.222656 C 198.949219 193.121094 198.457031 191.964844 197.949219 190.753906 C 197.4375 189.535156 196.921875 188.324219 196.402344 187.113281 C 195.878906 185.90625 195.40625 184.808594 194.980469 183.816406 C 194.738281 186.683594 194.5625 189.527344 194.449219 192.347656 C 194.332031 195.171875 194.238281 197.78125 194.167969 200.175781 L 188.761719 200.175781 C 188.855469 198.230469 188.964844 196.15625 189.089844 193.957031 C 189.222656 191.75 189.363281 189.550781 189.511719 187.363281 C 189.667969 185.167969 189.84375 183.050781 190.042969 181.019531 C 190.25 178.988281 190.472656 177.15625 190.714844 175.519531 Z M 196.011719 175.519531 " fill-opacity="1" fill-rule="nonzero"/><path fill="#000000" d="M 228.175781 196.472656 C 228.695312 196.472656 229.191406 196.464844 229.660156 196.441406 C 230.136719 196.421875 230.523438 196.386719 230.816406 196.332031 L 230.816406 192.316406 C 230.597656 192.265625 230.273438 192.21875 229.847656 192.175781 C 229.417969 192.125 229.027344 192.097656 228.675781 192.097656 C 228.175781 192.097656 227.707031 192.128906 227.269531 192.191406 C 226.832031 192.253906 226.445312 192.371094 226.113281 192.535156 C 225.777344 192.691406 225.519531 192.917969 225.332031 193.207031 C 225.144531 193.488281 225.050781 193.84375 225.050781 194.269531 C 225.050781 195.105469 225.324219 195.683594 225.878906 196.003906 C 226.441406 196.316406 227.207031 196.472656 228.175781 196.472656 Z M 227.753906 180.957031 C 229.316406 180.957031 230.617188 181.140625 231.660156 181.503906 C 232.699219 181.859375 233.535156 182.371094 234.160156 183.035156 C 234.792969 183.691406 235.242188 184.496094 235.503906 185.441406 C 235.761719 186.390625 235.894531 187.449219 235.894531 188.613281 L 235.894531 199.644531 C 235.132812 199.8125 234.074219 200.003906 232.722656 200.222656 C 231.378906 200.449219 229.742188 200.566406 227.816406 200.566406 C 226.605469 200.566406 225.507812 200.457031 224.519531 200.238281 C 223.539062 200.03125 222.695312 199.6875 221.988281 199.207031 C 221.277344 198.71875 220.730469 198.082031 220.347656 197.300781 C 219.972656 196.511719 219.785156 195.546875 219.785156 194.410156 C 219.785156 193.316406 220.003906 192.394531 220.441406 191.644531 C 220.878906 190.886719 221.460938 190.28125 222.191406 189.832031 C 222.929688 189.375 223.773438 189.046875 224.722656 188.847656 C 225.667969 188.640625 226.652344 188.535156 227.675781 188.535156 C 228.363281 188.535156 228.972656 188.566406 229.503906 188.628906 C 230.042969 188.691406 230.480469 188.769531 230.816406 188.863281 L 230.816406 188.363281 C 230.816406 187.46875 230.539062 186.75 229.988281 186.207031 C 229.445312 185.65625 228.496094 185.378906 227.144531 185.378906 C 226.246094 185.378906 225.355469 185.449219 224.472656 185.582031 C 223.597656 185.707031 222.839844 185.890625 222.207031 186.128906 L 221.519531 181.847656 C 221.832031 181.753906 222.214844 181.65625 222.675781 181.550781 C 223.144531 181.449219 223.648438 181.355469 224.191406 181.269531 C 224.730469 181.1875 225.304688 181.113281 225.910156 181.050781 C 226.523438 180.988281 227.136719 180.957031 227.753906 180.957031 Z M 227.753906 180.957031 " fill-opacity="1" fill-rule="nonzero"/><path fill="#000000" d="M 245.226562 190.207031 C 245.226562 193.175781 246.421875 194.660156 248.820312 194.660156 C 249.359375 194.660156 249.867188 194.59375 250.335938 194.457031 C 250.8125 194.3125 251.21875 194.144531 251.554688 193.957031 L 251.554688 185.488281 C 251.292969 185.4375 250.984375 185.394531 250.632812 185.363281 C 250.277344 185.324219 249.859375 185.300781 249.382812 185.300781 C 247.984375 185.300781 246.945312 185.765625 246.257812 186.691406 C 245.570312 187.621094 245.226562 188.792969 245.226562 190.207031 Z M 256.851562 197.832031 C 256.851562 200.882812 256.074219 203.148438 254.523438 204.628906 C 252.96875 206.117188 250.570312 206.863281 247.320312 206.863281 C 246.183594 206.863281 245.042969 206.757812 243.898438 206.550781 C 242.761719 206.351562 241.710938 206.085938 240.742188 205.753906 L 241.664062 201.316406 C 242.496094 201.648438 243.367188 201.910156 244.273438 202.097656 C 245.1875 202.285156 246.226562 202.378906 247.382812 202.378906 C 248.902344 202.378906 249.976562 202.042969 250.601562 201.378906 C 251.234375 200.722656 251.554688 199.871094 251.554688 198.816406 L 251.554688 198.144531 C 250.980469 198.40625 250.390625 198.605469 249.789062 198.738281 C 249.183594 198.863281 248.527344 198.925781 247.820312 198.925781 C 245.234375 198.925781 243.25 198.167969 241.867188 196.644531 C 240.492188 195.113281 239.804688 192.96875 239.804688 190.207031 C 239.804688 188.832031 240.015625 187.582031 240.445312 186.457031 C 240.871094 185.332031 241.496094 184.371094 242.320312 183.566406 C 243.140625 182.753906 244.140625 182.128906 245.320312 181.691406 C 246.507812 181.253906 247.851562 181.035156 249.351562 181.035156 C 249.984375 181.035156 250.640625 181.066406 251.320312 181.128906 C 251.996094 181.183594 252.664062 181.261719 253.320312 181.363281 C 253.984375 181.457031 254.621094 181.574219 255.226562 181.707031 C 255.839844 181.832031 256.382812 181.964844 256.851562 182.097656 Z M 256.851562 197.832031 " fill-opacity="1" fill-rule="nonzero"/><path fill="#000000" d="M 267.140625 200.175781 L 261.828125 200.175781 L 261.828125 181.457031 L 267.140625 181.457031 Z M 267.640625 176.050781 C 267.640625 177.03125 267.320312 177.800781 266.6875 178.363281 C 266.0625 178.917969 265.320312 179.191406 264.46875 179.191406 C 263.613281 179.191406 262.867188 178.917969 262.234375 178.363281 C 261.609375 177.800781 261.296875 177.03125 261.296875 176.050781 C 261.296875 175.082031 261.609375 174.324219 262.234375 173.769531 C 262.867188 173.207031 263.613281 172.925781 264.46875 172.925781 C 265.320312 172.925781 266.0625 173.207031 266.6875 173.769531 C 267.320312 174.324219 267.640625 175.082031 267.640625 176.050781 Z M 267.640625 176.050781 " fill-opacity="1" fill-rule="nonzero"/><path fill="#000000" d="M 271.21875 190.816406 C 271.21875 189.464844 271.4375 188.1875 271.875 186.988281 C 272.320312 185.792969 272.957031 184.75 273.78125 183.863281 C 274.613281 182.980469 275.625 182.277344 276.8125 181.753906 C 278 181.222656 279.351562 180.957031 280.875 180.957031 C 281.863281 180.957031 282.773438 181.050781 283.609375 181.238281 C 284.441406 181.417969 285.25 181.667969 286.03125 181.988281 L 284.921875 186.222656 C 284.421875 186.035156 283.875 185.875 283.28125 185.738281 C 282.6875 185.59375 282.023438 185.519531 281.296875 185.519531 C 279.734375 185.519531 278.566406 186.011719 277.796875 186.988281 C 277.023438 187.957031 276.640625 189.234375 276.640625 190.816406 C 276.640625 192.503906 277 193.8125 277.71875 194.738281 C 278.4375 195.65625 279.703125 196.113281 281.515625 196.113281 C 282.148438 196.113281 282.832031 196.058594 283.5625 195.941406 C 284.300781 195.828125 284.976562 195.640625 285.59375 195.378906 L 286.34375 199.707031 C 285.726562 199.96875 284.957031 200.191406 284.03125 200.378906 C 283.101562 200.574219 282.082031 200.675781 280.96875 200.675781 C 279.257812 200.675781 277.789062 200.417969 276.5625 199.910156 C 275.332031 199.402344 274.316406 198.707031 273.515625 197.832031 C 272.722656 196.949219 272.140625 195.90625 271.765625 194.707031 C 271.398438 193.511719 271.21875 192.214844 271.21875 190.816406 Z M 271.21875 190.816406 " fill-opacity="1" fill-rule="nonzero"/><path fill="#000000" d="M 295.273438 196.363281 C 296.25 196.363281 296.9375 196.269531 297.335938 196.082031 C 297.742188 195.894531 297.945312 195.53125 297.945312 194.988281 C 297.945312 194.5625 297.683594 194.1875 297.164062 193.863281 C 296.640625 193.542969 295.84375 193.175781 294.773438 192.769531 C 293.949219 192.46875 293.199219 192.152344 292.523438 191.816406 C 291.84375 191.484375 291.265625 191.089844 290.789062 190.628906 C 290.320312 190.160156 289.953125 189.609375 289.695312 188.972656 C 289.433594 188.328125 289.304688 187.558594 289.304688 186.660156 C 289.304688 184.902344 289.953125 183.511719 291.257812 182.488281 C 292.558594 181.46875 294.351562 180.957031 296.632812 180.957031 C 297.765625 180.957031 298.855469 181.0625 299.898438 181.269531 C 300.9375 181.46875 301.773438 181.6875 302.398438 181.925781 L 301.460938 186.050781 C 300.84375 185.84375 300.171875 185.65625 299.445312 185.488281 C 298.726562 185.324219 297.917969 185.238281 297.023438 185.238281 C 295.355469 185.238281 294.523438 185.699219 294.523438 186.613281 C 294.523438 186.832031 294.558594 187.027344 294.632812 187.191406 C 294.703125 187.359375 294.84375 187.519531 295.054688 187.675781 C 295.273438 187.824219 295.5625 187.988281 295.929688 188.175781 C 296.304688 188.355469 296.773438 188.546875 297.335938 188.753906 C 298.5 189.183594 299.464844 189.605469 300.226562 190.019531 C 300.984375 190.4375 301.585938 190.890625 302.023438 191.378906 C 302.460938 191.859375 302.765625 192.394531 302.945312 192.988281 C 303.121094 193.582031 303.210938 194.269531 303.210938 195.050781 C 303.210938 196.90625 302.515625 198.308594 301.132812 199.253906 C 299.746094 200.199219 297.78125 200.675781 295.242188 200.675781 C 293.585938 200.675781 292.203125 200.527344 291.101562 200.238281 C 289.996094 199.957031 289.230469 199.722656 288.804688 199.535156 L 289.695312 195.222656 C 290.589844 195.589844 291.511719 195.871094 292.460938 196.066406 C 293.40625 196.265625 294.34375 196.363281 295.273438 196.363281 Z M 295.273438 196.363281 " fill-opacity="1" fill-rule="nonzero"/><g clip-path="url(#a1c4ccc289)"><path fill="#ffffff" d="M 238.453125 67.613281 L 350.953125 67.613281 L 350.953125 180.113281 L 238.453125 180.113281 Z M 238.453125 67.613281 " fill-opacity="1" fill-rule="nonzero"/></g><g clip-path="url(#16b3487c09)"><path fill="#005eff" d="M 272.84375 171.582031 C 266.445312 172.757812 265.492188 173.714844 264.3125 180.113281 C 263.136719 173.714844 262.179688 172.757812 255.78125 171.582031 C 262.179688 170.402344 263.136719 169.449219 264.3125 163.050781 C 265.492188 169.449219 266.445312 170.402344 272.84375 171.582031 Z M 272.84375 171.582031 " fill-opacity="1" fill-rule="nonzero"/></g><path fill="#000000" d="M 308.273438 173.578125 L 307.101562 173.578125 L 307.101562 168.15625 L 305.195312 168.15625 L 305.195312 167.15625 L 310.195312 167.15625 L 310.195312 168.15625 L 308.273438 168.15625 Z M 312.101562 173.578125 L 311.070312 173.578125 L 311.070312 167.15625 L 312.710938 167.15625 L 314.414062 171.875 L 314.554688 171.875 L 316.242188 167.15625 L 317.882812 167.15625 L 317.882812 173.578125 L 316.835938 173.578125 L 316.835938 168.65625 L 316.679688 168.640625 L 314.945312 173.578125 L 313.992188 173.578125 L 312.242188 168.640625 L 312.101562 168.65625 Z M 312.101562 173.578125 " fill-opacity="1" fill-rule="nonzero"/></svg>